<?xml version="1.0" encoding="UTF-8" standalone="no"?>
<svg
   viewBox="0 0 298.23998 401.97964"
   version="1.1"
   id="svg3113"
   sodipodi:docname="programming.svg"
   width="298.23999"
   height="401.97964"
   inkscape:version="1.2 (dc2aeda, 2022-05-15)"
   xmlns:inkscape="http://www.inkscape.org/namespaces/inkscape"
   xmlns:sodipodi="http://sodipodi.sourceforge.net/DTD/sodipodi-0.dtd"
   xmlns="http://www.w3.org/2000/svg"
   xmlns:svg="http://www.w3.org/2000/svg">
  <sodipodi:namedview
     id="namedview172"
     pagecolor="#ffffff"
     bordercolor="#000000"
     borderopacity="0.25"
     inkscape:showpageshadow="2"
     inkscape:pageopacity="0.0"
     inkscape:pagecheckerboard="0"
     inkscape:deskcolor="#d1d1d1"
     showgrid="false"
     inkscape:zoom="1.0726631"
     inkscape:cx="364.51332"
     inkscape:cy="153.35663"
     inkscape:window-width="1792"
     inkscape:window-height="1067"
     inkscape:window-x="0"
     inkscape:window-y="25"
     inkscape:window-maximized="1"
     inkscape:current-layer="svg3113" />
  <defs
     id="defs2747">
    <style
       id="style2740">
      .cls-1,
      .cls-2 {
        fill: #d6d8e5;
      }

      .cls-1 {
        opacity: 0.4;
      }

      .cls-3 {
        fill: #b1b6c4;
      }

      .cls-4 {
        fill: #c4c7d6;
      }

      .cls-5 {
        fill: #38226d;
      }

      .cls-6 {
        fill: #9c73ff;
      }

      .cls-7 {
        fill: #8c50ff;
      }

      .cls-8 {
        fill: #ffcea9;
      }

      .cls-9 {
        fill: #ededed;
      }

      .cls-10 {
        fill: #e5e5e5;
      }

      .cls-11 {
        fill: #f4f4f4;
      }

      .cls-12 {
        fill: #bfbfbf;
      }

      .cls-13 {
        fill: #3a2c6d;
      }

      .cls-14 {
        fill: #dceeff;
      }

      .cls-15 {
        fill: #dbdbdb;
      }

      .cls-16 {
        fill: #1e3779;
      }

      .cls-17 {
        fill: #031f60;
      }

      .cls-18 {
        fill: #b1b4c4;
      }

      .cls-19 {
        fill: #9ea1af;
      }

      .cls-20 {
        fill: #e4e7f2;
      }

      .cls-21 {
        fill: #201d38;
      }

      .cls-22 {
        opacity: 0.3;
        fill: url(#Безымянный_градиент_15);
      }

      .cls-23 {
        fill: #a298e2;
      }

      .cls-24 {
        fill: #f4ce2c;
      }

      .cls-25 {
        fill: #4d3bff;
      }

      .cls-26 {
        fill: #ff8657;
      }

      .cls-27 {
        fill: #c33afc;
      }

      .cls-28 {
        fill: #a6ce28;
      }

      .cls-29 {
        fill: #bcd64d;
      }

      .cls-30 {
        fill: #28221c;
      }

      .cls-31 {
        fill: #fff;
        opacity: 0.07;
      }

      .cls-32 {
        fill: #8da01f;
      }

      .cls-33 {
        fill: #99b524;
      }

      .cls-34 {
        fill: #e4e6ef;
      }
    </style>
  </defs>
  <g
     id="Слой_2"
     data-name="Слой 2"
     transform="translate(-98.38,-0.00164158)">
    <path
       class="cls-18"
       d="m 226.26,372.59 -56.93,-32.87 c -4.1,-2.37 -3.58,-6.5 1.15,-9.24 l 36.88,-21.29 71.79,41.44 -36.88,21.3 c -4.74,2.73 -11.91,3.07 -16.01,0.66 z"
       id="path2934" />
    <path
       id="polygon2936"
       class="cls-18"
       style="fill:#b1b4c4"
       d="m 279.15,350.63 v -2.17 l -3.31,1.91 z" />
    <path
       id="polygon2938"
       class="cls-18"
       style="fill:#b1b4c4"
       d="m 166.56,335.81 v -2.21 l 3.41,1.41 z" />
    <path
       class="cls-2"
       d="m 226.26,370.42 -56.93,-32.87 c -4.1,-2.37 -3.58,-6.51 1.15,-9.24 l 36.88,-21.31 71.79,41.45 -36.88,21.29 c -4.74,2.75 -11.91,3.04 -16.01,0.68 z"
       id="path2940" />
    <path
       id="polygon2942"
       class="cls-19"
       style="fill:#9ea1af"
       d="m 207.56,307.11 -8.89,-29.48 72.57,41.63 7.91,29.2 z" />
    <path
       class="cls-19"
       d="m 277.05,349.67 2.1,-1.21 L 276,346 Z"
       id="path2944" />
    <path
       id="polygon2946"
       class="cls-18"
       style="fill:#b1b4c4"
       d="m 205.27,308.22 -8.89,-29.48 72.57,41.63 8.1,29.3 z" />
    <path
       class="cls-4"
       d="M 389.49,399.35 108.58,237.17 c -3.94,-2.28 -7.13,-8.38 -7.13,-13.63 V 6.25 c 0,-5.25 3.19,-7.67 7.13,-5.39 L 389.49,163 c 3.94,2.27 7.13,8.37 7.13,13.63 V 394 c 0,5.21 -3.19,7.63 -7.13,5.35 z"
       id="path2948" />
    <path
       id="polygon2950"
       class="cls-4"
       style="fill:#c4c7d6"
       d="m 390.93,401.59 3.12,-1.79 -1.35,-9.23 z" />
    <path
       class="cls-18"
       d="m 100.94,2.19 3.06,-1.76 4.4,2.51 c 0,0 -4.69,0.71 -4.8,0.68 -0.11,-0.03 -2.66,-1.43 -2.66,-1.43 z"
       id="path2952" />
    <path
       class="cls-20"
       d="M 386.91,400.84 106,238.66 c -3.94,-2.28 -7.14,-8.38 -7.14,-13.63 V 7.74 c 0,-5.26 3.2,-7.67 7.14,-5.4 l 280.9,162.18 c 3.94,2.28 7.14,8.38 7.14,13.64 v 217.28 c 0.01,5.26 -3.19,7.67 -7.13,5.4 z"
       id="path2954" />
    <path
       class="cls-21"
       d="M 386.42,401.12 105.51,238.94 c -3.94,-2.28 -7.13,-8.38 -7.13,-13.63 V 8 c 0,-5.25 3.19,-7.67 7.13,-5.39 l 280.91,162.2 c 3.94,2.27 7.13,8.37 7.13,13.63 v 217.29 c 0,5.27 -3.19,7.67 -7.13,5.39 z"
       id="path2956" />
    <path
       id="polygon2960"
       class="cls-23"
       style="fill:#a298e2"
       d="m 276.62,142.08 -19.07,-11.01 v -6.88 l 19.07,11.01 z" />
    <path
       id="polygon2962"
       class="cls-24"
       style="fill:#f4ce2c"
       d="m 320.7,167.55 -40.51,-23.41 v -6.88 l 40.51,23.41 z" />
    <path
       id="polygon2964"
       class="cls-23"
       style="fill:#a298e2"
       d="m 276.62,164.09 -19.07,-11 v -6.88 l 19.07,11 z" />
    <path
       id="polygon2966"
       class="cls-25"
       style="fill:#4d3bff"
       d="m 293.61,174.07 -13.42,-7.91 v -6.88 l 13.42,7.91 z" />
    <path
       id="polygon2968"
       class="cls-23"
       style="fill:#a298e2"
       d="m 276.62,175.1 -19.07,-11.01 v -6.88 l 19.07,11.01 z" />
    <path
       id="polygon2970"
       class="cls-25"
       style="fill:#4d3bff"
       d="m 302.83,190.23 -22.64,-13.07 v -6.88 l 22.64,13.07 z" />
    <path
       id="polygon2972"
       class="cls-23"
       style="fill:#a298e2"
       d="m 276.62,186.1 -19.07,-11 v -6.88 l 19.07,11.01 z" />
    <path
       id="polygon2974"
       class="cls-26"
       style="fill:#ff8657"
       d="m 339.9,222.56 -59.71,-34.39 v -6.88 l 59.71,34.4 z" />
    <path
       id="polygon2976"
       class="cls-23"
       style="fill:#a298e2"
       d="m 276.62,153.09 -19.07,-11.01 v -6.88 l 19.07,11.01 z" />
    <path
       id="polygon2978"
       class="cls-23"
       style="fill:#a298e2"
       d="m 354.57,198.14 -74.38,-42.99 v -6.88 l 74.38,42.99 z" />
    <path
       id="polygon2980"
       class="cls-23"
       style="fill:#a298e2"
       d="M 276.62,197.11 257.55,186.1 v -6.88 l 19.07,11.01 z" />
    <path
       id="polygon2982"
       class="cls-27"
       style="fill:#c33afc"
       d="m 344.53,237.01 -64.34,-37.83 v -6.88 l 64.34,37.83 z" />
    <path
       id="polygon2984"
       class="cls-23"
       style="fill:#a298e2"
       d="m 276.62,219.13 -19.07,-11.01 v -6.88 l 19.07,11.01 z" />
    <path
       id="polygon2986"
       class="cls-23"
       style="fill:#a298e2"
       d="m 355.26,264.53 -75.07,-43.34 v -6.88 l 75.07,43.34 z" />
    <path
       id="polygon2988"
       class="cls-23"
       style="fill:#a298e2"
       d="m 276.62,230.13 -19.07,-11 v -6.88 l 19.07,11 z" />
    <path
       id="polygon2990"
       class="cls-27"
       style="fill:#c33afc"
       d="m 302.83,245.27 -22.64,-13.08 v -6.87 l 22.64,13.07 z" />
    <path
       id="polygon2992"
       class="cls-23"
       style="fill:#a298e2"
       d="m 276.62,241.14 -19.07,-11.01 v -6.88 l 19.07,11.01 z" />
    <path
       id="polygon2994"
       class="cls-25"
       style="fill:#4d3bff"
       d="M 326.45,270.03 280.19,243.2 v -6.88 l 46.26,26.83 z" />
    <path
       id="polygon2996"
       class="cls-23"
       style="fill:#a298e2"
       d="m 276.62,208.12 -19.07,-11.01 v -6.88 l 19.07,11.01 z" />
    <path
       id="polygon2998"
       class="cls-25"
       style="fill:#4d3bff"
       d="m 288.53,215 -8.34,-4.82 v -6.88 l 8.34,4.82 z" />
    <path
       id="polygon3000"
       class="cls-23"
       style="fill:#a298e2"
       d="m 276.62,252.15 -19.07,-11.01 v -6.88 l 19.07,11.01 z" />
    <path
       id="polygon3002"
       class="cls-27"
       style="fill:#c33afc"
       d="m 310.05,271.41 -29.86,-17.2 v -6.88 l 29.86,17.2 z" />
    <path
       id="polygon3004"
       class="cls-23"
       style="fill:#a298e2"
       d="m 276.62,274.16 -19.07,-11.01 v -6.88 l 19.07,11.01 z" />
    <path
       id="polygon3006"
       class="cls-26"
       style="fill:#ff8657"
       d="m 323.76,301.06 -43.57,-24.84 v -6.88 l 43.57,24.84 z" />
    <path
       id="polygon3008"
       class="cls-23"
       style="fill:#a298e2"
       d="m 276.62,285.17 -19.07,-11.01 v -6.88 l 19.07,11.01 z" />
    <path
       id="polygon3010"
       class="cls-23"
       style="fill:#a298e2"
       d="m 285.63,290.67 -5.44,-3.44 v -6.88 l 5.44,3.44 z" />
    <path
       id="polygon3012"
       class="cls-23"
       style="fill:#a298e2"
       d="m 276.62,296.17 -19.07,-11 v -6.88 l 19.07,11 z" />
    <path
       id="polygon3014"
       class="cls-24"
       style="fill:#f4ce2c"
       d="m 305.18,312.63 -24.99,-14.39 v -6.88 l 24.99,14.39 z" />
    <path
       id="polygon3016"
       class="cls-23"
       style="fill:#a298e2"
       d="m 276.62,263.15 -19.07,-11 v -6.89 l 19.07,11.01 z" />
    <path
       id="polygon3018"
       class="cls-25"
       style="fill:#4d3bff"
       d="m 314.96,285.17 -34.77,-19.96 v -6.87 l 34.77,19.95 z" />
    <path
       id="polygon3020"
       class="cls-23"
       style="fill:#a298e2"
       d="M 153.28,73.29 134.21,62.28 V 55.4 l 19.07,11.01 z" />
    <path
       id="polygon3022"
       class="cls-27"
       style="fill:#c33afc"
       d="M 237.88,122.13 156.85,75.35 v -6.88 l 81.03,46.78 z" />
    <path
       id="polygon3024"
       class="cls-23"
       style="fill:#a298e2"
       d="M 153.28,95.3 134.21,84.29 v -6.88 l 19.07,11.01 z" />
    <path
       id="polygon3026"
       class="cls-24"
       style="fill:#f4ce2c"
       d="M 210.47,128.32 156.85,97.36 v -6.88 l 53.62,30.96 z" />
    <path
       id="polygon3028"
       class="cls-23"
       style="fill:#a298e2"
       d="M 153.28,106.31 134.21,95.3 v -6.88 l 19.07,11.01 z" />
    <path
       id="polygon3030"
       class="cls-26"
       style="fill:#ff8657"
       d="m 223.58,146.89 -66.73,-38.52 v -6.88 l 66.73,38.52 z" />
    <path
       id="polygon3032"
       class="cls-23"
       style="fill:#a298e2"
       d="m 153.28,117.31 -19.07,-11 v -6.88 l 19.07,11 z" />
    <path
       id="polygon3034"
       class="cls-23"
       style="fill:#a298e2"
       d="m 203.32,146.21 -46.47,-26.83 v -6.88 l 46.47,26.83 z" />
    <path
       id="polygon3036"
       class="cls-23"
       style="fill:#a298e2"
       d="M 153.28,84.29 134.21,73.28 v -6.87 l 19.07,11 z" />
    <path
       id="polygon3038"
       class="cls-25"
       style="fill:#4d3bff"
       d="M 197.36,109.75 156.85,86.36 v -6.88 l 40.51,23.39 z" />
    <path
       id="polygon3040"
       class="cls-23"
       style="fill:#a298e2"
       d="m 153.28,128.32 -19.07,-11.01 v -6.88 l 19.07,11.01 z" />
    <path
       id="polygon3042"
       class="cls-27"
       style="fill:#c33afc"
       d="m 180.68,144.14 -23.83,-13.76 v -6.88 l 23.83,13.76 z" />
    <path
       id="polygon3044"
       class="cls-23"
       style="fill:#a298e2"
       d="m 153.28,150.33 -19.07,-11.01 v -6.87 l 19.07,11 z" />
    <path
       id="polygon3046"
       class="cls-24"
       style="fill:#f4ce2c"
       d="M 231.92,195.74 156.85,152.4 v -6.88 l 75.07,43.34 z" />
    <path
       id="polygon3048"
       class="cls-23"
       style="fill:#a298e2"
       d="m 153.28,161.34 -19.07,-11.01 v -6.88 l 19.07,11.01 z" />
    <path
       id="polygon3050"
       class="cls-26"
       style="fill:#ff8657"
       d="M 179.49,176.47 156.85,163.4 v -6.88 l 22.64,13.07 z" />
    <path
       id="polygon3052"
       class="cls-23"
       style="fill:#a298e2"
       d="m 153.28,172.35 -19.07,-11.01 v -6.88 l 19.07,11.01 z" />
    <path
       id="polygon3054"
       class="cls-23"
       style="fill:#a298e2"
       d="m 223.58,212.93 -66.73,-38.52 v -6.88 l 66.73,38.53 z" />
    <path
       id="polygon3056"
       class="cls-23"
       style="fill:#a298e2"
       d="m 153.28,139.33 -19.07,-11.01 v -6.88 l 19.07,11.01 z" />
    <path
       id="polygon3058"
       class="cls-25"
       style="fill:#4d3bff"
       d="m 220,177.85 -63.15,-36.46 v -6.88 L 220,170.97 Z" />
    <path
       id="polygon3060"
       class="cls-23"
       style="fill:#a298e2"
       d="m 153.28,183.35 -19.07,-11.01 v -6.87 l 19.07,11 z" />
    <path
       id="polygon3062"
       class="cls-27"
       style="fill:#c33afc"
       d="m 165.19,190.23 -8.34,-4.81 v -6.88 l 8.34,4.81 z" />
    <path
       id="polygon3064"
       class="cls-23"
       style="fill:#a298e2"
       d="m 153.28,205.37 -19.07,-11.01 v -6.88 l 19.07,11.01 z" />
    <path
       id="polygon3066"
       class="cls-24"
       style="fill:#f4ce2c"
       d="m 172.34,216.37 -15.49,-8.94 v -6.88 l 15.49,8.94 z" />
    <path
       id="polygon3068"
       class="cls-23"
       style="fill:#a298e2"
       d="m 153.28,216.37 -19.07,-11 v -6.88 l 19.07,11 z" />
    <path
       id="polygon3070"
       class="cls-26"
       style="fill:#ff8657"
       d="m 197.36,241.83 -40.51,-23.39 v -6.88 l 40.51,23.39 z" />
    <path
       id="polygon3072"
       class="cls-23"
       style="fill:#a298e2"
       d="m 153.28,227.38 -19.07,-11.01 v -6.88 l 19.07,11.01 z" />
    <path
       id="polygon3074"
       class="cls-23"
       style="fill:#a298e2"
       d="m 221.19,266.59 -64.34,-37.15 v -6.88 l 64.34,37.15 z" />
    <path
       id="polygon3076"
       class="cls-23"
       style="fill:#a298e2"
       d="m 153.28,194.36 -19.07,-11.01 v -6.88 l 19.07,11.01 z" />
    <path
       id="polygon3078"
       class="cls-25"
       style="fill:#4d3bff"
       d="m 237.88,243.2 -81.03,-46.78 v -6.88 l 81.03,46.78 z" />
  </g>
</svg>
